<svg width="200" height="200" viewBox="0 0 200 200" fill="none" xmlns="http://www.w3.org/2000/svg">
  <defs>
    <!-- Main purple gradient - deep to bright -->
    <linearGradient id="mainPurple" x1="0%" y1="0%" x2="0%" y2="100%">
      <stop offset="0%" style="stop-color:#C084FC"/>
      <stop offset="30%" style="stop-color:#A855F7"/>
      <stop offset="70%" style="stop-color:#9333EA"/>
      <stop offset="100%" style="stop-color:#6D28D9"/>
    </linearGradient>
    
    <!-- Metallic shine gradient for gloss effect -->
    <linearGradient id="glossShine" x1="0%" y1="0%" x2="0%" y2="100%">
      <stop offset="0%" style="stop-color:#FFFFFF;stop-opacity:0.9"/>
      <stop offset="25%" style="stop-color:#E9D5FF;stop-opacity:0.5"/>
      <stop offset="50%" style="stop-color:#C084FC;stop-opacity:0.2"/>
      <stop offset="100%" style="stop-color:#FFFFFF;stop-opacity:0"/>
    </linearGradient>
    
    <!-- Inner glow gradient -->
    <radialGradient id="innerGlow">
      <stop offset="0%" style="stop-color:#F3E8FF;stop-opacity:0.6"/>
      <stop offset="50%" style="stop-color:#C084FC;stop-opacity:0.3"/>
      <stop offset="100%" style="stop-color:#6D28D9;stop-opacity:0"/>
    </radialGradient>
    
    <!-- Ambient background glow -->
    <radialGradient id="bgGlow">
      <stop offset="0%" style="stop-color:#A855F7;stop-opacity:0.4"/>
      <stop offset="50%" style="stop-color:#9333EA;stop-opacity:0.2"/>
      <stop offset="100%" style="stop-color:#6D28D9;stop-opacity:0"/>
    </radialGradient>
    
    <!-- 3D shadow filter -->
    <filter id="shadow3D">
      <feDropShadow dx="0" dy="8" stdDeviation="6" flood-color="#3B0764" flood-opacity="0.6"/>
      <feDropShadow dx="0" dy="4" stdDeviation="3" flood-color="#581C87" flood-opacity="0.4"/>
      <feDropShadow dx="0" dy="2" stdDeviation="1" flood-color="#6D28D9" flood-opacity="0.3"/>
    </filter>
    
    <!-- Outer glow filter -->
    <filter id="outerGlow">
      <feGaussianBlur stdDeviation="8" result="blur"/>
      <feColorMatrix in="blur" type="matrix" values="1 0 0 0 0  0 1 0 0 0  0 0 1 0 0  0 0 0 0.6 0"/>
      <feMerge>
        <feMergeNode/>
        <feMergeNode in="SourceGraphic"/>
      </feMerge>
    </filter>
    
    <!-- Shimmer animation -->
    <linearGradient id="shimmer" x1="0%" y1="0%" x2="100%" y2="100%">
      <stop offset="0%" style="stop-color:#FFFFFF;stop-opacity:0"/>
      <stop offset="50%" style="stop-color:#FFFFFF;stop-opacity:0.4"/>
      <stop offset="100%" style="stop-color:#FFFFFF;stop-opacity:0"/>
      <animate attributeName="x1" values="-100%;200%;-100%" dur="4s" repeatCount="indefinite"/>
      <animate attributeName="x2" values="0%;300%;0%" dur="4s" repeatCount="indefinite"/>
    </linearGradient>
  </defs>
  
  <!-- Ambient background glow circle -->
  <circle cx="100" cy="100" r="90" fill="url(#bgGlow)" opacity="0.6">
    <animate attributeName="r" values="85;95;85" dur="3s" repeatCount="indefinite"/>
    <animate attributeName="opacity" values="0.5;0.7;0.5" dur="3s" repeatCount="indefinite"/>
  </circle>
  
  <!-- Deep 3D layer shadows (extruded depth) -->
  <path d="M 100 50 Q 120 50 130 58 Q 140 66 140 78 Q 140 88 130 94 Q 120 100 100 100 Q 80 100 70 106 Q 60 112 60 122 Q 60 134 70 142 Q 80 150 100 150 Q 115 150 125 145" 
        stroke="none" fill="#1E0342" opacity="0.3" 
        transform="translate(6, 8)"/>
  
  <path d="M 100 50 Q 120 50 130 58 Q 140 66 140 78 Q 140 88 130 94 Q 120 100 100 100 Q 80 100 70 106 Q 60 112 60 122 Q 60 134 70 142 Q 80 150 100 150 Q 115 150 125 145" 
        stroke="none" fill="#2E0555" opacity="0.4" 
        transform="translate(4, 6)"/>
  
  <path d="M 100 50 Q 120 50 130 58 Q 140 66 140 78 Q 140 88 130 94 Q 120 100 100 100 Q 80 100 70 106 Q 60 112 60 122 Q 60 134 70 142 Q 80 150 100 150 Q 115 150 125 145" 
        stroke="none" fill="#3B0764" opacity="0.5" 
        transform="translate(2, 4)"/>
  
  <path d="M 100 50 Q 120 50 130 58 Q 140 66 140 78 Q 140 88 130 94 Q 120 100 100 100 Q 80 100 70 106 Q 60 112 60 122 Q 60 134 70 142 Q 80 150 100 150 Q 115 150 125 145" 
        stroke="none" fill="#4C0B7A" opacity="0.6" 
        transform="translate(1, 2)"/>
  
  <!-- Main "S" shape with gradient -->
  <path d="M 100 50 Q 120 50 130 58 Q 140 66 140 78 Q 140 88 130 94 Q 120 100 100 100 Q 80 100 70 106 Q 60 112 60 122 Q 60 134 70 142 Q 80 150 100 150 Q 115 150 125 145" 
        stroke="url(#mainPurple)" stroke-width="28" stroke-linecap="round" stroke-linejoin="round" 
        fill="none" filter="url(#shadow3D)"/>
  
  <!-- Inner fill with gradient -->
  <path d="M 100 50 Q 120 50 130 58 Q 140 66 140 78 Q 140 88 130 94 Q 120 100 100 100 Q 80 100 70 106 Q 60 112 60 122 Q 60 134 70 142 Q 80 150 100 150 Q 115 150 125 145" 
        stroke="url(#mainPurple)" stroke-width="24" stroke-linecap="round" stroke-linejoin="round" 
        fill="none"/>
  
  <!-- Glossy top highlight (Apple-style) -->
  <path d="M 100 52 Q 118 52 127 59 Q 136 66 136 76 Q 136 84 128 89" 
        stroke="url(#glossShine)" stroke-width="8" stroke-linecap="round" 
        fill="none" opacity="0.8"/>
  
  <!-- Mid-section highlight -->
  <path d="M 102 98 Q 84 98 75 104 Q 66 110 66 120 Q 66 128 72 135" 
        stroke="url(#glossShine)" stroke-width="6" stroke-linecap="round" 
        fill="none" opacity="0.6"/>
  
  <!-- Inner glow effect -->
  <ellipse cx="110" cy="70" rx="18" ry="12" fill="url(#innerGlow)" opacity="0.6"/>
  <ellipse cx="85" cy="128" rx="15" ry="10" fill="url(#innerGlow)" opacity="0.5"/>
  
  <!-- Shimmer animation overlay -->
  <path d="M 100 50 Q 120 50 130 58 Q 140 66 140 78 Q 140 88 130 94 Q 120 100 100 100 Q 80 100 70 106 Q 60 112 60 122 Q 60 134 70 142 Q 80 150 100 150 Q 115 150 125 145" 
        stroke="url(#shimmer)" stroke-width="24" stroke-linecap="round" stroke-linejoin="round" 
        fill="none" opacity="0.5"/>
  
  <!-- Outer glow halo -->
  <path d="M 100 50 Q 120 50 130 58 Q 140 66 140 78 Q 140 88 130 94 Q 120 100 100 100 Q 80 100 70 106 Q 60 112 60 122 Q 60 134 70 142 Q 80 150 100 150 Q 115 150 125 145" 
        stroke="#A855F7" stroke-width="32" stroke-linecap="round" stroke-linejoin="round" 
        fill="none" opacity="0.15" filter="url(#outerGlow)"/>
  
  <!-- Bottom reflection/rim light -->
  <path d="M 102 148 Q 114 148 124 144" 
        stroke="#F3E8FF" stroke-width="3" stroke-linecap="round" 
        fill="none" opacity="0.4"/>
</svg>